<?xml version="1.0" standalone="no"?>
<!DOCTYPE svg PUBLIC "-//W3C//DTD SVG 20010904//EN"
 "http://www.w3.org/TR/2001/REC-SVG-20010904/DTD/svg10.dtd">
<svg version="1.0" xmlns="http://www.w3.org/2000/svg" viewBox="0 0 327.000000 326.000000"
 preserveAspectRatio="xMidYMid meet">
<metadata>
Created by potrace 1.16, written by Peter Selinger 2001-2019
</metadata>
<g transform="translate(0.000000,326.000000) scale(0.100000,-0.100000)"
fill="#707176" stroke="none">
<path d="M1420 3254 c-281 -52 -469 -122 -669 -251 -363 -234 -610 -591 -711
-1027 -57 -248 -40 -589 43 -846 118 -365 372 -686 707 -893 405 -250 936
-304 1395 -141 124 43 307 142 415 222 496 370 734 946 648 1562 -47 340 -222
678 -479 926 -143 137 -233 199 -424 293 -137 67 -228 99 -370 131 -84 19
-135 23 -315 26 -118 1 -226 0 -240 -2z m-139 -1054 c134 -26 237 -115 268
-235 43 -169 -6 -335 -124 -413 -28 -19 -51 -38 -53 -42 -2 -5 64 -98 147
-206 83 -109 151 -205 151 -215 0 -10 -9 -23 -19 -29 -13 -6 -177 -10 -466
-10 -289 0 -453 4 -466 10 -18 10 -19 27 -19 568 0 421 3 561 12 570 15 15
490 17 569 2z m1152 -28 c66 -33 114 -83 131 -139 31 -100 24 -232 -17 -305
-22 -39 -22 -39 -2 -50 11 -6 39 -30 61 -52 77 -76 104 -223 63 -343 -25 -74
-71 -130 -136 -166 -92 -49 -155 -59 -441 -64 -242 -5 -264 -4 -282 12 -19 18
-20 35 -20 562 0 370 3 551 11 564 10 20 18 21 288 17 l276 -3 68 -33z"/>
</g>
</svg>
